<svg width="1059" height="119" viewBox="0 0 1059 119" fill="none" xmlns="http://www.w3.org/2000/svg">
<path d="M42.432 93.536C36.3733 93.536 31.5947 92.4693 28.096 90.336C24.5973 88.1173 22.08 85.088 20.544 81.248C19.0933 77.408 18.368 72.928 18.368 67.808V38.368H0.832001V30.432L18.752 29.792L20.16 9.824H28.864V29.792H59.456V38.368H28.864V67.936C28.864 71.6053 29.3333 74.72 30.272 77.28C31.2107 79.84 32.832 81.76 35.136 83.04C37.44 84.32 40.5973 84.96 44.608 84.96C47.5947 84.96 50.2827 84.704 52.672 84.192C55.0613 83.68 57.3653 82.9973 59.584 82.144L61.888 89.824C59.072 90.848 56.0853 91.7013 52.928 92.384C49.856 93.152 46.3573 93.536 42.432 93.536ZM110.99 93.536C104.761 93.536 99.086 92.256 93.966 89.696C88.9313 87.136 84.9207 83.424 81.934 78.56C78.9473 73.6107 77.454 67.68 77.454 60.768C77.454 54.0267 78.9473 48.224 81.934 43.36C84.9207 38.496 88.8033 34.784 93.582 32.224C98.446 29.5787 103.651 28.256 109.198 28.256C115.171 28.256 120.249 29.4933 124.43 31.968C128.697 34.3573 131.939 37.728 134.158 42.08C136.462 46.432 137.614 51.552 137.614 57.44C137.614 58.6347 137.571 59.7867 137.486 60.896C137.401 62.0053 137.273 62.9867 137.102 63.84H84.494V55.648H130.83L128.142 58.592C128.142 51.2533 126.435 45.7493 123.022 42.08C119.694 38.4107 115.171 36.576 109.454 36.576C105.614 36.576 102.03 37.5147 98.702 39.392C95.4593 41.2693 92.8567 44 90.894 47.584C88.9313 51.168 87.95 55.5627 87.95 60.768C87.95 66.144 89.0167 70.624 91.15 74.208C93.2833 77.792 96.1847 80.5227 99.854 82.4C103.523 84.192 107.662 85.088 112.27 85.088C116.025 85.088 119.395 84.576 122.382 83.552C125.454 82.4427 128.398 80.992 131.214 79.2L135.054 86.112C131.982 88.16 128.441 89.9093 124.43 91.36C120.505 92.8107 116.025 93.536 110.99 93.536ZM176.988 93.536C173.148 93.536 169.607 92.8533 166.364 91.488C163.121 90.0373 160.561 87.9893 158.684 85.344C156.807 82.6987 155.868 79.5413 155.868 75.872C155.868 68.8747 159.367 63.584 166.364 60C173.361 56.3307 184.881 53.856 200.924 52.576C200.839 49.76 200.241 47.1573 199.132 44.768C198.108 42.3787 196.401 40.5013 194.012 39.136C191.623 37.6853 188.423 36.96 184.412 36.96C181.767 36.96 179.121 37.344 176.476 38.112C173.916 38.7947 171.441 39.7333 169.052 40.928C166.748 42.0373 164.615 43.1893 162.652 44.384L158.556 37.216C160.604 35.8507 163.079 34.4853 165.98 33.12C168.967 31.6693 172.167 30.5173 175.58 29.664C178.993 28.7253 182.535 28.256 186.204 28.256C191.921 28.256 196.615 29.3227 200.284 31.456C204.039 33.5893 206.812 36.576 208.604 40.416C210.481 44.1707 211.42 48.6507 211.42 53.856V92H202.844L201.948 83.552H201.564C198.151 86.2827 194.311 88.6293 190.044 90.592C185.777 92.5547 181.425 93.536 176.988 93.536ZM179.804 85.088C183.388 85.088 186.929 84.2773 190.428 82.656C193.927 81.0347 197.425 78.7733 200.924 75.872V59.488C192.049 60.256 185.052 61.3227 179.932 62.688C174.897 64.0533 171.313 65.8027 169.18 67.936C167.132 69.984 166.108 72.3733 166.108 75.104C166.108 77.408 166.748 79.328 168.028 80.864C169.308 82.3147 170.972 83.3813 173.02 84.064C175.153 84.7467 177.415 85.088 179.804 85.088ZM229.674 92V29.792H238.122L239.018 37.984H239.274C240.895 35.0827 242.773 32.736 244.906 30.944C247.039 29.152 249.898 28.256 253.482 28.256C256.554 28.256 259.071 29.152 261.034 30.944C262.997 32.736 264.405 35.424 265.258 39.008C267.05 35.68 269.013 33.0773 271.146 31.2C273.365 29.2373 276.266 28.256 279.85 28.256C284.202 28.256 287.573 29.92 289.962 33.248C292.437 36.4907 293.674 41.2267 293.674 47.456V92H283.178V48.224C283.178 40.9707 280.959 37.344 276.522 37.344C274.389 37.344 272.597 38.1547 271.146 39.776C269.781 41.312 268.245 43.7013 266.538 46.944V92H256.81V48.224C256.81 44.64 256.298 41.952 255.274 40.16C254.335 38.2827 252.714 37.344 250.41 37.344C248.277 37.344 246.399 38.1547 244.778 39.776C243.242 41.312 241.706 43.7013 240.17 46.944V92H229.674ZM342.648 110.432C337.613 110.432 332.835 109.365 328.312 107.232C323.789 105.099 319.821 101.899 316.408 97.632C312.995 93.3653 310.264 88.0747 308.216 81.76C306.253 75.4453 305.272 68.192 305.272 60C305.272 49.0773 306.936 39.9893 310.264 32.736C313.677 25.3973 318.2 19.8933 323.832 16.224C329.549 12.5547 335.907 10.72 342.904 10.72C348.792 10.72 353.656 12.0427 357.496 14.688C361.336 17.3333 364.195 20.96 366.072 25.568C367.949 30.176 368.888 35.3813 368.888 41.184V79.2H362.488L361.592 71.776H361.08C359.203 74.1653 356.728 76.256 353.656 78.048C350.669 79.84 347.512 80.736 344.184 80.736C341.197 80.736 338.424 80.0533 335.864 78.688C333.389 77.3227 331.384 75.4027 329.848 72.928C328.397 70.368 327.672 67.3813 327.672 63.968C327.672 59.616 328.952 55.9893 331.512 53.088C334.157 50.1867 337.997 47.84 343.032 46.048C348.067 44.256 354.211 42.9333 361.464 42.08V40.288C361.464 36.192 360.781 32.4373 359.416 29.024C358.136 25.6107 356.088 22.88 353.272 20.832C350.541 18.784 346.915 17.76 342.392 17.76C338.552 17.76 334.883 18.656 331.384 20.448C327.885 22.24 324.771 24.928 322.04 28.512C319.309 32.0107 317.176 36.448 315.64 41.824C314.104 47.1147 313.336 53.3013 313.336 60.384C313.336 69.5147 314.616 77.3227 317.176 83.808C319.821 90.208 323.363 95.072 327.8 98.4C332.323 101.728 337.357 103.392 342.904 103.392C346.744 103.392 350.072 102.88 352.888 101.856C355.789 100.917 358.477 99.5093 360.952 97.632L364.536 103.392C361.208 105.611 357.752 107.317 354.168 108.512C350.669 109.792 346.829 110.432 342.648 110.432ZM346.36 73.312C348.749 73.312 351.139 72.6293 353.528 71.264C355.917 69.8133 358.307 67.7653 360.696 65.12V48.992C351.821 50.272 345.507 52.064 341.752 54.368C337.997 56.672 336.12 59.7867 336.12 63.712C336.12 66.6987 337.059 69.0453 338.936 70.752C340.813 72.4587 343.288 73.312 346.36 73.312ZM426.182 93.536C420.123 93.536 415.345 92.4693 411.846 90.336C408.347 88.1173 405.83 85.088 404.294 81.248C402.843 77.408 402.118 72.928 402.118 67.808V38.368H384.582V30.432L402.502 29.792L403.91 9.824H412.614V29.792H443.206V38.368H412.614V67.936C412.614 71.6053 413.083 74.72 414.022 77.28C414.961 79.84 416.582 81.76 418.886 83.04C421.19 84.32 424.347 84.96 428.358 84.96C431.345 84.96 434.033 84.704 436.422 84.192C438.811 83.68 441.115 82.9973 443.334 82.144L445.638 89.824C442.822 90.848 439.835 91.7013 436.678 92.384C433.606 93.152 430.107 93.536 426.182 93.536ZM464.404 92V0.863998H474.9V25.696L474.26 40.416H474.644C477.801 37.0027 481.257 34.144 485.012 31.84C488.767 29.4507 493.076 28.256 497.94 28.256C505.279 28.256 510.697 30.3893 514.196 34.656C517.695 38.9227 519.444 45.152 519.444 53.344V92H508.948V54.752C508.948 48.864 507.839 44.512 505.62 41.696C503.401 38.7947 499.732 37.344 494.612 37.344C490.943 37.344 487.657 38.2827 484.756 40.16C481.855 42.0373 478.569 44.8533 474.9 48.608V92H464.404ZM547.938 92V29.792H556.642L557.538 44.512H557.922C561.165 39.4773 565.175 35.5093 569.954 32.608C574.733 29.7067 579.981 28.256 585.698 28.256C588.002 28.256 590.135 28.4693 592.098 28.896C594.146 29.2373 596.109 29.8773 597.986 30.816L595.554 39.904C593.421 39.136 591.586 38.5813 590.05 38.24C588.514 37.8987 586.509 37.728 584.034 37.728C579.341 37.728 574.818 39.0933 570.466 41.824C566.199 44.4693 562.189 49.0347 558.434 55.52V92H547.938ZM648.24 93.536C642.011 93.536 636.336 92.256 631.216 89.696C626.181 87.136 622.171 83.424 619.184 78.56C616.197 73.6107 614.704 67.68 614.704 60.768C614.704 54.0267 616.197 48.224 619.184 43.36C622.171 38.496 626.053 34.784 630.832 32.224C635.696 29.5787 640.901 28.256 646.448 28.256C652.421 28.256 657.499 29.4933 661.68 31.968C665.947 34.3573 669.189 37.728 671.408 42.08C673.712 46.432 674.864 51.552 674.864 57.44C674.864 58.6347 674.821 59.7867 674.736 60.896C674.651 62.0053 674.523 62.9867 674.352 63.84H621.744V55.648H668.08L665.392 58.592C665.392 51.2533 663.685 45.7493 660.272 42.08C656.944 38.4107 652.421 36.576 646.704 36.576C642.864 36.576 639.28 37.5147 635.952 39.392C632.709 41.2693 630.107 44 628.144 47.584C626.181 51.168 625.2 55.5627 625.2 60.768C625.2 66.144 626.267 70.624 628.4 74.208C630.533 77.792 633.435 80.5227 637.104 82.4C640.773 84.192 644.912 85.088 649.52 85.088C653.275 85.088 656.645 84.576 659.632 83.552C662.704 82.4427 665.648 80.992 668.464 79.2L672.304 86.112C669.232 88.16 665.691 89.9093 661.68 91.36C657.755 92.8107 653.275 93.536 648.24 93.536ZM724.99 93.536C718.761 93.536 713.086 92.256 707.966 89.696C702.931 87.136 698.921 83.424 695.934 78.56C692.947 73.6107 691.454 67.68 691.454 60.768C691.454 54.0267 692.947 48.224 695.934 43.36C698.921 38.496 702.803 34.784 707.582 32.224C712.446 29.5787 717.651 28.256 723.198 28.256C729.171 28.256 734.249 29.4933 738.43 31.968C742.697 34.3573 745.939 37.728 748.158 42.08C750.462 46.432 751.614 51.552 751.614 57.44C751.614 58.6347 751.571 59.7867 751.486 60.896C751.401 62.0053 751.273 62.9867 751.102 63.84H698.494V55.648H744.83L742.142 58.592C742.142 51.2533 740.435 45.7493 737.022 42.08C733.694 38.4107 729.171 36.576 723.454 36.576C719.614 36.576 716.03 37.5147 712.702 39.392C709.459 41.2693 706.857 44 704.894 47.584C702.931 51.168 701.95 55.5627 701.95 60.768C701.95 66.144 703.017 70.624 705.15 74.208C707.283 77.792 710.185 80.5227 713.854 82.4C717.523 84.192 721.662 85.088 726.27 85.088C730.025 85.088 733.395 84.576 736.382 83.552C739.454 82.4427 742.398 80.992 745.214 79.2L749.054 86.112C745.982 88.16 742.441 89.9093 738.43 91.36C734.505 92.8107 730.025 93.536 724.99 93.536ZM797.9 93.536C795.084 93.536 792.652 92.5547 790.604 90.592C788.556 88.544 787.532 85.9413 787.532 82.784C787.532 79.5413 788.556 76.9387 790.604 74.976C792.652 72.928 795.084 71.904 797.9 71.904C800.801 71.904 803.233 72.928 805.196 74.976C807.244 76.9387 808.268 79.5413 808.268 82.784C808.268 85.9413 807.244 88.544 805.196 90.592C803.233 92.5547 800.801 93.536 797.9 93.536ZM886.682 93.536C880.623 93.536 875.845 92.4693 872.346 90.336C868.847 88.1173 866.33 85.088 864.794 81.248C863.343 77.408 862.618 72.928 862.618 67.808V38.368H845.082V30.432L863.002 29.792L864.41 9.824H873.114V29.792H903.706V38.368H873.114V67.936C873.114 71.6053 873.583 74.72 874.522 77.28C875.461 79.84 877.082 81.76 879.386 83.04C881.69 84.32 884.847 84.96 888.858 84.96C891.845 84.96 894.533 84.704 896.922 84.192C899.311 83.68 901.615 82.9973 903.834 82.144L906.138 89.824C903.322 90.848 900.335 91.7013 897.178 92.384C894.106 93.152 890.607 93.536 886.682 93.536ZM951.4 93.536C945.939 93.536 940.861 92.256 936.168 89.696C931.56 87.136 927.805 83.424 924.904 78.56C922.088 73.696 920.68 67.8507 920.68 61.024C920.68 54.0267 922.088 48.096 924.904 43.232C927.805 38.368 931.56 34.656 936.168 32.096C940.861 29.536 945.939 28.256 951.4 28.256C956.861 28.256 961.896 29.536 966.504 32.096C971.197 34.656 974.952 38.368 977.768 43.232C980.669 48.096 982.12 54.0267 982.12 61.024C982.12 67.8507 980.669 73.696 977.768 78.56C974.952 83.424 971.197 87.136 966.504 89.696C961.896 92.256 956.861 93.536 951.4 93.536ZM951.4 84.832C955.411 84.832 958.909 83.8507 961.896 81.888C964.883 79.84 967.187 77.024 968.808 73.44C970.429 69.856 971.24 65.7173 971.24 61.024C971.24 56.2453 970.429 52.064 968.808 48.48C967.187 44.8107 964.883 41.9947 961.896 40.032C958.909 37.984 955.411 36.96 951.4 36.96C947.389 36.96 943.891 37.984 940.904 40.032C938.003 41.9947 935.699 44.8107 933.992 48.48C932.371 52.064 931.56 56.2453 931.56 61.024C931.56 65.7173 932.371 69.856 933.992 73.44C935.699 77.024 938.003 79.84 940.904 81.888C943.891 83.8507 947.389 84.832 951.4 84.832ZM1001.65 118.24V29.792H1010.36L1011.25 37.728H1011.64C1014.54 34.9973 1017.87 32.736 1021.62 30.944C1025.46 29.152 1029.3 28.256 1033.14 28.256C1038.77 28.256 1043.47 29.5787 1047.22 32.224C1051.06 34.784 1053.96 38.4533 1055.93 43.232C1057.89 47.9253 1058.87 53.5147 1058.87 60C1058.87 66.9973 1057.55 73.0133 1054.9 78.048C1052.26 83.0827 1048.8 86.9227 1044.53 89.568C1040.27 92.2133 1035.62 93.536 1030.58 93.536C1027.77 93.536 1024.65 92.8533 1021.24 91.488C1017.91 90.0373 1014.84 88.032 1012.02 85.472H1011.64L1012.15 97.248V118.24H1001.65ZM1028.79 84.704C1032.46 84.704 1035.74 83.7227 1038.65 81.76C1041.55 79.7973 1043.81 76.9813 1045.43 73.312C1047.14 69.5573 1047.99 65.12 1047.99 60C1047.99 55.4773 1047.39 51.5093 1046.2 48.096C1045 44.5973 1043.13 41.9093 1040.57 40.032C1038.01 38.0693 1034.64 37.088 1030.45 37.088C1027.64 37.088 1024.65 37.856 1021.49 39.392C1018.42 40.8427 1015.31 43.1893 1012.15 46.432V77.408C1015.14 80.0533 1018.12 81.9307 1021.11 83.04C1024.18 84.1493 1026.74 84.704 1028.79 84.704Z" fill="black"/>
</svg>
